<svg xmlns="http://www.w3.org/2000/svg" width="270.079" height="249.912" viewBox="0 0 270.079 249.912"><g transform="translate(-0.013 -0.289)"><path d="M200.976,181.579c1.3,73.117-64.984,81.335-111.4,60.117-71.4-32.639-24.954-28.743-81.293-155.3C-33.136-6.646,87.714-7.031,222.052,55.333,341.667,110.861,200.125,133.694,200.976,181.579Zm27.17,24.164c8.962-8.709,40.266,10.689,16.2,40.179-7.2,8.817-15.522,5.838-22.714,1.031C185.908,223.074,231.621,202.365,228.145,205.743Z" transform="translate(0 -1.689)" fill="#daeef7" fill-rule="evenodd"/><path d="M150.544,20A94.544,94.544,0,1,1,56,114.544,94.545,94.545,0,0,1,150.544,20Z" transform="translate(-8.084 -2.846)" fill="#2caae2" fill-rule="evenodd"/><path d="M242.479,192.121v-5.134h16.256V169.875h5.134v22.246ZM258.735,26.134H241.623V21h22.246V42.39h-5.134ZM39.7,44.1H34.567V22.711H56.813v5.134H39.7ZM37.134,183.565H53.39V188.7H32V166.453h5.134Z" transform="translate(-4.619 -2.991)" fill="#2caae2" fill-rule="evenodd"/><path d="M152.475,93.191c-32.1,0-38.123,0-59.18,0-5.928-.277-14.147-1.9-14.459-28.715s2.318-43.53,24.063-43.75,46.821-.211,49.219,2.187C152.118,22.915,170.734,64.975,152.475,93.191Zm-12.387,17.225a35.589,35.589,0,0,0,6.563,13.6c-11.726,10.565-43.466,5.308-55.7,2.17,0,0,5.214-9.448,6.479-15.771Z" transform="translate(-11.378 -2.938)" fill="#ffdcbb" fill-rule="evenodd"/><path d="M154.711,21.243l.863-.172s8.278,52.806,8.749,70c-8.662,19.577-65.774,35.828-91.875,1.093,2.189-30.159,3.908-57.958,4.293-64.279l-1.012-.252S71.075,12.773,81.2,11.227s12.031,0,12.031,0S111.607.234,124.949.289s34.206,11.341,35,15.313C159.949,15.6,159.49,18.709,154.711,21.243Zm-13.356,3.109c-15.909.922-41.25-3.995-47.031-1.094a49.311,49.311,0,0,0-9.845,6.563l-.515-.129c-1.654,10.835-6.111,46.528,4.891,58.1,3.01,0,9.971-13.814,30.147-13.814,22.71,0,25.156,13.814,27.822,13.814,15.315-12.813,5.037-58.335,3.477-64.826A41.891,41.891,0,0,1,141.355,24.352Zm0,18.594a25.468,25.468,0,0,0-13.125-2.188V34.2c5.782.413,9.592,2.714,13.125,4.375S144.512,43.931,141.355,42.946Zm-6.577,3.272c1.809,0,3.275,2.208,3.275,4.933s-1.467,4.933-3.275,4.933S131.5,53.875,131.5,51.15,132.969,46.218,134.778,46.218Zm-39.36-3.272c-3.157.985-3.534-2.715,0-4.376s7.343-3.961,13.125-4.375v6.562A25.469,25.469,0,0,0,95.418,42.946Zm7.663,3.272c1.816,0,3.289,2.208,3.289,4.933s-1.472,4.933-3.289,4.933-3.289-2.208-3.289-4.933S101.264,46.218,103.08,46.218Z" transform="translate(-10.459 0)" fill="#313335" fill-rule="evenodd"/><path d="M127.232,50.133s2.279,19.693,5.469,21.874c-5.144-.011-5.469,0-5.469,0V74.2h-1.093V70.914h4.375a60.161,60.161,0,0,1-4.375-20.781A1.81,1.81,0,0,1,127.232,50.133Z" transform="translate(-18.212 -7.187)" fill="#b29e8a" fill-rule="evenodd"/><path d="M173.918,223.836c-29.681,6.622-61.5-1.144-72.726-5.989C60.276,200.181,49,154.532,49,154.532s16.512-8.413,29.946-3.422c9.175,8.739,28.235,13.69,28.235,13.69l7.7-10.267s2.416,3.349,5.989,9.412c24.87-3.307,28.433-13.038,30.8-13.69,19.7-5.419,32.513,10.267,32.513,10.267C182.032,165.306,172.649,191.672,173.918,223.836Zm-59.892-61.6v21.39l.856-21.39Zm3.85,5.989a1.283,1.283,0,1,0,1.283,1.283A1.284,1.284,0,0,0,117.876,168.222Zm0,7.7a1.283,1.283,0,1,0,1.283,1.283A1.284,1.284,0,0,0,117.876,175.922Zm3.687-13.046c-.3.216-6.562-10.937-6.562-10.937s-7.55,11.48-7.5,11.173c-5.982,1.272-25.779-10.2-26.4-11.173a115.6,115.6,0,0,1,7.657-12.032c25.96,14.235,52.5,0,52.5,0a62.091,62.091,0,0,1,7.657,12.032C145.474,156.2,130.426,162.567,121.563,162.876Z" transform="translate(-7.074 -20.16)" fill="#fff" fill-rule="evenodd"/><path d="M190,167h63.315v33.369H190Z" transform="translate(-27.433 -24.072)" fill="#fff" fill-rule="evenodd"/><path d="M115,93a27.9,27.9,0,0,0,10.664,1.99,77.533,77.533,0,0,0,9.87-1.135s-.5,12.593-10.267,12.834C114.914,106.946,115,93,115,93Z" transform="translate(-16.604 -13.387)" fill="#fff" fill-rule="evenodd"/><path d="M257.627,206.809h-63.5a2.568,2.568,0,0,1-2.73-2.361V166.561a2.567,2.567,0,0,1,2.73-2.361h63.5a2.568,2.568,0,0,1,2.73,2.361v37.886A2.569,2.569,0,0,1,257.627,206.809Zm-12.048-10.652h2.462a1.077,1.077,0,1,0,0-2.13h-2.462a1.077,1.077,0,1,0,0,2.13Zm-6.158,0h1.231a1.077,1.077,0,1,0,0-2.13h-1.231a1.077,1.077,0,1,0,0,2.13Zm-7.389,0h2.462a1.077,1.077,0,1,0,0-2.13h-2.462a1.077,1.077,0,1,0,0,2.13Zm-6.158,0h1.231a1.077,1.077,0,1,0,0-2.13h-1.231a1.077,1.077,0,1,0,0,2.13Zm-6.158.078a4.512,4.512,0,0,0-2.9-4.074l-4.485-1.982v-.412a8,8,0,0,0,4.2-4.648,3.144,3.144,0,0,0,1.956-2.809v-1.065a3.048,3.048,0,0,0-1.418-2.5c-.768-4.026-4.017-6.067-9.667-6.067q-.4,0-.783.026a7.069,7.069,0,0,1-3.971-.789,4.911,4.911,0,0,1-1.127-.844,1.686,1.686,0,0,0-2.269-.066,1.166,1.166,0,0,0-.363,1c.052.4.129.862.246,1.37.238,1.039.238,1.039-.1,1.66-.126.235-.281.522-.463.909a10.616,10.616,0,0,0-.863,2.82,3.044,3.044,0,0,0-1.4,2.488v1.065a3.144,3.144,0,0,0,1.956,2.809,7.989,7.989,0,0,0,4.2,4.648v.4l-4.642,1.979a4.507,4.507,0,0,0-2.747,4v1.412c0,.856,0,2.857,12.315,2.857s12.316-2,12.316-2.857Zm18.473-20.317H225.875a1.077,1.077,0,1,0,0,2.13h12.315a1.077,1.077,0,1,0,0-2.13Zm6.158,0h-1.231a1.076,1.076,0,1,0,0,2.13h1.231a1.077,1.077,0,1,0,0-2.13Zm8.835,6.036H225.875c-.681,0-1.232.831-1.232,1.42s.551,1.42,1.232,1.42h27.307c.681,0,1.017-.832,1.017-1.42S253.863,181.954,253.182,181.954Zm-.214,6.746H225.875a1.077,1.077,0,1,0,0,2.13h27.094a1.076,1.076,0,1,0,0-2.13Zm.874,5.635a1.44,1.44,0,0,0-1.749,0,.979.979,0,0,0,0,1.513,1.392,1.392,0,0,0,1.749,0,.98.98,0,0,0,0-1.513Z" transform="translate(-27.634 -23.668)" fill="#313335" fill-rule="evenodd"/><path d="M241.872,174.194l5.518-10.781v-4.107h-4.966l-.552-2.053-4.414-1.027-3.863,1.54L231.94,155.2h-4.966l-1.656,2.053-5.518-1.54-.552,2.053.552,15.914,1.656,1.027,2.758-.513,1.1-4.107.552,5.647h2.758l2.759-1.54.552-6.674.552,6.16,1.1,1.027H235.8l1.656-1.027,1.655-6.16-.552,6.16,1.1,1.027Z" transform="translate(-31.657 -22.368)" fill="#ffdcbb" fill-rule="evenodd"/></g></svg>