<svg xmlns="http://www.w3.org/2000/svg" width="265.921" height="228.298" viewBox="0 0 265.921 228.298"><g transform="translate(-0.996 -0.858)"><path d="M255.35,191.361C204.8,224.385,177.44,132.943,82.391,122.323,5.6,113.743,48.063-14.631,203.027,2.415c43.083,4.739,5.727,62.636,26.162,88.66C260.674,131.17,280.832,174.715,255.35,191.361ZM60.818,135.246c20.4,2.235,14.612,23.677,24.291,35.948,14.912,18.906,12.558,45.295.49,53.143C61.656,239.908,51.972,213.079,18.921,209.4-7.781,206.419-12.573,127.208,60.818,135.246Zm75.672,61.437c9.29-3.057,1.19,9.957,23.368,6.878,15.786-2.193,19.565,13.506-5.4,19.389C136.84,227.1,122.971,201.132,136.49,196.682Z" transform="translate(0 0)" fill="#daeef7" fill-rule="evenodd"/><path d="M75.8,255.591a29.8,29.8,0,1,1,29.8-29.8A29.8,29.8,0,0,1,75.8,255.591Zm9.819-10.726h1.374a2.772,2.772,0,0,0,2.746-2.781v-1.39H88.361v1.39a1.306,1.306,0,0,1-1.373,1.391H85.615Zm2.746-8.343V239.3h1.374v-2.781Zm1.374-1.39V232.35H88.361v2.781Zm-8.24,9.733h2.747v-1.39H81.5Zm-4.119,0h2.746v-1.39H77.376Zm-4.12,0H76v-1.39H73.256Zm-4.12,0h2.747v-1.39H69.137Zm-5.493-2.781a2.772,2.772,0,0,0,2.746,2.781h1.373v-1.39H66.39a1.384,1.384,0,0,1-1.373-1.391v-1.39H63.644Zm0-2.78h1.374v-2.781H63.644Zm0-4.171h1.374V232.35H63.644ZM81.5,207.322v8.343a1.384,1.384,0,0,0,1.374,1.39h6.866Zm8.24,11.124H82.869a2.772,2.772,0,0,1-2.746-2.781v-8.343H66.39a2.772,2.772,0,0,0-2.746,2.781v18.076H89.735Zm2.746,8.343H91.107v2.78H62.271v-2.78H60.9v6.952h1.373v-2.78H91.107v2.78h1.373Z" transform="translate(-12.299 -53.329)" fill="#2caae2" fill-rule="evenodd"/><path d="M214.495,186.989a66.495,66.495,0,1,1,66.495-66.495A66.495,66.495,0,0,1,214.495,186.989ZM235.2,108.581a1.589,1.589,0,0,0-1.639-1.53h-38.14a1.589,1.589,0,0,0-1.639,1.53v24.554a1.589,1.589,0,0,0,1.639,1.53h38.14a1.589,1.589,0,0,0,1.639-1.53Zm-4.437,19.181a.806.806,0,0,1-.525-.2.668.668,0,0,1,0-.98.816.816,0,0,1,1.05,0,.668.668,0,0,1,0,.98A.807.807,0,0,1,230.767,127.762Zm0-3.452H214.495a.692.692,0,1,1,0-1.381h16.272a.692.692,0,1,1,0,1.381Zm.129-3.912h-16.4c-.409,0-.74-.539-.74-.921s.331-.921.74-.921h16.4c.408,0,.61.539.61.921S231.3,120.4,230.9,120.4Zm-5.306-4.373h-.739a.692.692,0,1,1,0-1.381h.739a.692.692,0,1,1,0,1.381Zm-3.7,0h-7.4a.692.692,0,1,1,0-1.381h7.4a.692.692,0,1,1,0,1.381Zm-18.491,14.5c-7.4,0-7.4-1.3-7.4-1.852v-.915a2.93,2.93,0,0,1,1.65-2.594l2.788-1.283v-.259a5.059,5.059,0,0,1-2.524-3.013,2.041,2.041,0,0,1-1.174-1.82v-.69a2.013,2.013,0,0,1,.838-1.613,7.292,7.292,0,0,1,.518-1.828c.11-.251.2-.436.278-.589.2-.4.2-.4.057-1.076-.07-.33-.116-.63-.148-.888a.789.789,0,0,1,.217-.646.959.959,0,0,1,1.363.043,2.98,2.98,0,0,0,.677.547,3.987,3.987,0,0,0,2.384.511q.23-.016.471-.017c3.392,0,5.344,1.323,5.805,3.932a2.013,2.013,0,0,1,.851,1.622v.69a2.041,2.041,0,0,1-1.174,1.82,5.062,5.062,0,0,1-2.523,3.013v.267l2.693,1.284a2.921,2.921,0,0,1,1.744,2.64v.86C210.8,129.226,210.8,130.523,203.4,130.523Zm11.094-4.142h.74a.692.692,0,1,1,0,1.381h-.74a.692.692,0,1,1,0-1.381Zm3.7,0h1.479a.692.692,0,1,1,0,1.381h-1.479a.692.692,0,1,1,0-1.381Zm4.437,0h.74a.692.692,0,1,1,0,1.381h-.74a.692.692,0,1,1,0-1.381Zm3.7,0h1.48a.692.692,0,1,1,0,1.381h-1.48a.692.692,0,1,1,0-1.381Z" transform="translate(-40.173 -14.523)" fill="#2caae2" fill-rule="evenodd"/><path d="M265.434,204.56l-9.551-32.548-27.7-10.531,1.911-2.872,22.923-.957,3.82-3.829,5.731-18.189-.956-4.787-10.506-18.189-2.865-.957H236.781l-5.731-3.829L255.883,105,276.9,131.8l1.91,47.865,1.911,11.488Zm-103.152,0L147,191.158l1.91-11.488L150.82,131.8,171.833,105l24.833,2.872-5.731,3.829H179.474l-2.865.957L166.1,130.847l-.956,4.787,5.731,18.189,3.82,3.829,22.923.957,1.911,2.872-27.7,10.531Z" transform="translate(-39.9 -28.46)" fill="#ffdcbb" fill-rule="evenodd"/><path d="M262.287,154.088V121.73a4.949,4.949,0,0,0-4.968-4.9H193.713a4.951,4.951,0,0,0-4.97,4.9v32.358a4.949,4.949,0,0,0,4.968,4.9h63.608A4.95,4.95,0,0,0,262.287,154.088Zm-3.581-21.355v10.352a.6.6,0,0,1-1.2,0V132.733a.6.6,0,0,1,1.2,0Zm-67.48,5.176a2.485,2.485,0,1,1,2.485,2.451A2.469,2.469,0,0,1,191.225,137.909Zm6.711,17.672V120.239h56.473V155.58Z" transform="translate(-51.308 -31.693)" fill="#313335" fill-rule="evenodd"/></g></svg>