<svg xmlns="http://www.w3.org/2000/svg" width="306.607" height="245.482" viewBox="0 0 306.607 245.482"><g transform="translate(-0.154 -0.299)"><path d="M296.886,63.375c-.784,23.27-17.994,28.61-35.623,29.565-87.571,4.745-38.925-85.272-40.393-75.474C224.655-7.794,299.507-14.453,296.886,63.375ZM189.911,233.757c-56.449,36.875-57.469-18.119-150.932-69.786C-29.729,125.989-6.9,63.07,104.707,39.006c99.372-21.426,42.676,46,64.917,75.466C203.917,159.91,218.364,215.17,189.911,233.757ZM249.857,116.1c4.9,0,10.65,8,10.65,13.041S254,138,249.1,138a9.005,9.005,0,0,1-8.876-9.129C240.221,123.834,244.955,116.1,249.857,116.1Z" transform="translate(0 0)" fill="#daeef7" fill-rule="evenodd"/><path d="M172.249,221.5A74.249,74.249,0,1,1,246.5,147.249,74.249,74.249,0,0,1,172.249,221.5Zm23.045-87.7a1.8,1.8,0,0,0-1.813-1.777H151.318c-1,0-2.382.622-2.382,1.6v19.241l46.357-.044Zm0,23.487-46.357-.144v4.276c0,.981,1.382,1.6,2.382,1.6H193.48a1.8,1.8,0,0,0,1.813-1.777ZM156.4,137.634h8.177a.8.8,0,1,1,0,1.6H156.4a.8.8,0,1,1,0-1.6Zm0,4.276h31.853a.8.8,0,1,1,0,1.6H156.4a.8.8,0,1,1,0-1.6Zm0,4.009h.818a.8.8,0,1,1,0,1.6H156.4a.8.8,0,1,1,0-1.6Zm4.088,0h1.636a.8.8,0,1,1,0,1.6H160.49a.8.8,0,1,1,0-1.6Zm4.906,0h.818a.8.8,0,1,1,0,1.6H165.4a.8.8,0,1,1,0-1.6Zm4.088,0h1.635a.8.8,0,1,1,0,1.6h-1.635a.8.8,0,1,1,0-1.6Zm5.486.232a.8.8,0,0,1,0,1.138.841.841,0,0,1-1.16,0,.8.8,0,0,1,0-1.138A.867.867,0,0,1,174.97,146.151Zm4.267,0a.8.8,0,0,1,0,1.138.842.842,0,0,1-1.161,0,.8.8,0,0,1,0-1.138A.868.868,0,0,1,179.237,146.151Zm4.266,0a.8.8,0,0,1,0,1.138.842.842,0,0,1-1.161,0,.8.8,0,0,1,0-1.138A.868.868,0,0,1,183.5,146.151Zm5.332,0a.8.8,0,0,1,0,1.138.842.842,0,0,1-1.161,0,.8.8,0,0,1,0-1.138A.868.868,0,0,1,188.835,146.151Zm-20.168-6.914h-.818a.8.8,0,1,1,0-1.6h.818a.8.8,0,1,1,0,1.6Z" transform="translate(-18.448 -13.707)" fill="#2caae2" fill-rule="evenodd"/><path d="M329.27,98.54a33.27,33.27,0,1,1,33.27-33.27A33.27,33.27,0,0,1,329.27,98.54Zm10.964-11.977h1.534a3.1,3.1,0,0,0,3.066-3.105V81.9H343.3v1.552a1.458,1.458,0,0,1-1.533,1.553h-1.534Zm3.066-9.316v3.105h1.534V77.247Zm1.534-1.552V72.589H343.3v3.105Zm-9.2,10.868H338.7V85.01h-3.067Zm-4.6,0H334.1V85.01h-3.067Zm-4.6,0H329.5V85.01h-3.066Zm-4.6,0H324.9V85.01h-3.067ZM315.7,83.457a3.1,3.1,0,0,0,3.067,3.105H320.3V85.01h-1.534a1.546,1.546,0,0,1-1.533-1.553V81.9H315.7Zm0-3.1h1.534V77.247H315.7Zm0-4.658h1.534V72.589H315.7Zm19.933-31.052v9.316a1.546,1.546,0,0,0,1.534,1.552h7.667Zm9.2,12.421h-7.667a3.1,3.1,0,0,1-3.066-3.105V44.643H318.768a3.1,3.1,0,0,0-3.067,3.105V67.931h29.133Zm3.066,9.316h-1.534v3.1h-32.2v-3.1h-1.534v7.762h1.534v-3.1h32.2v3.1H347.9Z" transform="translate(-55.779 -5.977)" fill="#2caae2" fill-rule="evenodd"/><path d="M229.245,235.17l-10.665-36.344-30.928-11.759,2.133-3.207,25.6-1.069,4.266-4.276,6.4-20.31-1.067-5.345-11.731-20.31-3.2-1.069h-12.8l-6.4-4.276L218.579,124l23.463,29.931,2.133,53.447,2.133,12.828Zm-115.18,0L97,220.205l2.133-12.828,2.133-53.447L124.728,124l27.729,3.207-6.4,4.276h-12.8l-3.2,1.069-11.731,20.31-1.067,5.345,6.4,20.31,4.266,4.276,25.6,1.069,2.133,3.207-30.929,11.759Z" transform="translate(-18.259 -23.323)" fill="#ffdcbb" fill-rule="evenodd"/><path d="M220.863,177.432V141.3a5.526,5.526,0,0,0-5.547-5.473H144.293a5.529,5.529,0,0,0-5.55,5.473v36.131a5.526,5.526,0,0,0,5.547,5.474h71.026A5.527,5.527,0,0,0,220.863,177.432Zm-4-23.845v11.559a.672.672,0,0,1-1.344,0V153.588a.672.672,0,0,1,1.344,0Zm-75.349,5.779a2.774,2.774,0,1,1,2.775,2.736A2.757,2.757,0,0,1,141.515,159.367Zm7.493,19.732V139.637h63.059V179.1Z" transform="translate(-26.13 -25.553)" fill="#313335" fill-rule="evenodd"/></g></svg>